<mxfile host="app.diagrams.net" modified="2022-05-24T02:37:56.422Z" agent="5.0 (Windows NT 10.0; Win64; x64) AppleWebKit/537.36 (KHTML, like Gecko) Chrome/101.0.4951.64 Safari/537.36 Edg/101.0.1210.47" etag="fDxRbvggim8J1eaIx9_a" version="18.0.8" type="github">
  <diagram id="fPDhReRPAme99BJQwYK9" name="Page-1">
    <mxGraphModel dx="782" dy="436" grid="1" gridSize="10" guides="1" tooltips="1" connect="1" arrows="1" fold="1" page="1" pageScale="1" pageWidth="827" pageHeight="1169" math="0" shadow="0">
      <root>
        <mxCell id="0" />
        <mxCell id="1" parent="0" />
        <mxCell id="zaFiIXA9nG1pKAVqpKBD-5" value="" style="edgeStyle=orthogonalEdgeStyle;rounded=0;orthogonalLoop=1;jettySize=auto;html=1;" parent="1" source="zaFiIXA9nG1pKAVqpKBD-1" target="zaFiIXA9nG1pKAVqpKBD-4" edge="1">
          <mxGeometry relative="1" as="geometry" />
        </mxCell>
        <mxCell id="zaFiIXA9nG1pKAVqpKBD-1" value="启动程序" style="rounded=0;whiteSpace=wrap;html=1;" parent="1" vertex="1">
          <mxGeometry x="70" y="60" width="120" height="60" as="geometry" />
        </mxCell>
        <mxCell id="zaFiIXA9nG1pKAVqpKBD-7" value="" style="edgeStyle=orthogonalEdgeStyle;rounded=0;orthogonalLoop=1;jettySize=auto;html=1;" parent="1" source="zaFiIXA9nG1pKAVqpKBD-4" target="zaFiIXA9nG1pKAVqpKBD-6" edge="1">
          <mxGeometry relative="1" as="geometry" />
        </mxCell>
        <mxCell id="zaFiIXA9nG1pKAVqpKBD-9" value="否" style="edgeLabel;html=1;align=center;verticalAlign=middle;resizable=0;points=[];" parent="zaFiIXA9nG1pKAVqpKBD-7" vertex="1" connectable="0">
          <mxGeometry x="0.2157" y="-3" relative="1" as="geometry">
            <mxPoint as="offset" />
          </mxGeometry>
        </mxCell>
        <mxCell id="zaFiIXA9nG1pKAVqpKBD-11" value="" style="edgeStyle=orthogonalEdgeStyle;rounded=0;orthogonalLoop=1;jettySize=auto;html=1;" parent="1" source="zaFiIXA9nG1pKAVqpKBD-4" target="zaFiIXA9nG1pKAVqpKBD-10" edge="1">
          <mxGeometry relative="1" as="geometry" />
        </mxCell>
        <mxCell id="zaFiIXA9nG1pKAVqpKBD-4" value="&lt;span style=&quot;&quot;&gt;检测是否有插入U盘&lt;/span&gt;" style="rhombus;whiteSpace=wrap;html=1;rounded=0;" parent="1" vertex="1">
          <mxGeometry x="65" y="190" width="130" height="80" as="geometry" />
        </mxCell>
        <mxCell id="zaFiIXA9nG1pKAVqpKBD-8" style="edgeStyle=orthogonalEdgeStyle;rounded=0;orthogonalLoop=1;jettySize=auto;html=1;entryX=1;entryY=0.25;entryDx=0;entryDy=0;" parent="1" source="zaFiIXA9nG1pKAVqpKBD-6" target="zaFiIXA9nG1pKAVqpKBD-1" edge="1">
          <mxGeometry relative="1" as="geometry">
            <Array as="points">
              <mxPoint x="330" y="75" />
            </Array>
          </mxGeometry>
        </mxCell>
        <mxCell id="zaFiIXA9nG1pKAVqpKBD-6" value="提示未找到钱包" style="ellipse;whiteSpace=wrap;html=1;rounded=0;" parent="1" vertex="1">
          <mxGeometry x="280" y="200" width="120" height="60" as="geometry" />
        </mxCell>
        <mxCell id="zaFiIXA9nG1pKAVqpKBD-13" value="否" style="edgeStyle=orthogonalEdgeStyle;rounded=0;orthogonalLoop=1;jettySize=auto;html=1;" parent="1" source="zaFiIXA9nG1pKAVqpKBD-10" target="zaFiIXA9nG1pKAVqpKBD-12" edge="1">
          <mxGeometry relative="1" as="geometry" />
        </mxCell>
        <mxCell id="zaFiIXA9nG1pKAVqpKBD-26" value="" style="edgeStyle=orthogonalEdgeStyle;rounded=0;orthogonalLoop=1;jettySize=auto;html=1;" parent="1" source="zaFiIXA9nG1pKAVqpKBD-10" target="zaFiIXA9nG1pKAVqpKBD-25" edge="1">
          <mxGeometry relative="1" as="geometry" />
        </mxCell>
        <mxCell id="zaFiIXA9nG1pKAVqpKBD-10" value="遍历U盘是否已经存在钱包加密文件" style="rhombus;whiteSpace=wrap;html=1;rounded=0;" parent="1" vertex="1">
          <mxGeometry x="54.38" y="360" width="151.25" height="80" as="geometry" />
        </mxCell>
        <mxCell id="To-tUrie1UpzVCq_ssf6-10" style="edgeStyle=orthogonalEdgeStyle;rounded=0;orthogonalLoop=1;jettySize=auto;html=1;entryX=0.5;entryY=0;entryDx=0;entryDy=0;" parent="1" source="zaFiIXA9nG1pKAVqpKBD-12" target="zaFiIXA9nG1pKAVqpKBD-14" edge="1">
          <mxGeometry relative="1" as="geometry" />
        </mxCell>
        <mxCell id="zaFiIXA9nG1pKAVqpKBD-12" value="提示开始制作钱包" style="whiteSpace=wrap;html=1;rounded=0;" parent="1" vertex="1">
          <mxGeometry x="440" y="370" width="120" height="60" as="geometry" />
        </mxCell>
        <mxCell id="zaFiIXA9nG1pKAVqpKBD-18" value="" style="edgeStyle=orthogonalEdgeStyle;rounded=0;orthogonalLoop=1;jettySize=auto;html=1;" parent="1" source="zaFiIXA9nG1pKAVqpKBD-14" target="zaFiIXA9nG1pKAVqpKBD-17" edge="1">
          <mxGeometry relative="1" as="geometry" />
        </mxCell>
        <mxCell id="zaFiIXA9nG1pKAVqpKBD-14" value="输入钱包密码" style="whiteSpace=wrap;html=1;rounded=0;" parent="1" vertex="1">
          <mxGeometry x="440" y="525" width="120" height="60" as="geometry" />
        </mxCell>
        <mxCell id="zaFiIXA9nG1pKAVqpKBD-24" value="" style="edgeStyle=orthogonalEdgeStyle;rounded=0;orthogonalLoop=1;jettySize=auto;html=1;" parent="1" source="zaFiIXA9nG1pKAVqpKBD-17" target="zaFiIXA9nG1pKAVqpKBD-23" edge="1">
          <mxGeometry relative="1" as="geometry" />
        </mxCell>
        <mxCell id="zaFiIXA9nG1pKAVqpKBD-17" value="输入助记词或者私钥（允许输入多组）" style="whiteSpace=wrap;html=1;rounded=0;" parent="1" vertex="1">
          <mxGeometry x="439.99" y="650" width="120" height="60" as="geometry" />
        </mxCell>
        <mxCell id="To-tUrie1UpzVCq_ssf6-12" style="edgeStyle=orthogonalEdgeStyle;rounded=0;orthogonalLoop=1;jettySize=auto;html=1;entryX=1;entryY=0.5;entryDx=0;entryDy=0;" parent="1" source="zaFiIXA9nG1pKAVqpKBD-23" target="To-tUrie1UpzVCq_ssf6-3" edge="1">
          <mxGeometry relative="1" as="geometry" />
        </mxCell>
        <mxCell id="zaFiIXA9nG1pKAVqpKBD-23" value="生成加密钱包（AES加密）" style="whiteSpace=wrap;html=1;rounded=0;" parent="1" vertex="1">
          <mxGeometry x="430.61" y="800" width="138.75" height="60" as="geometry" />
        </mxCell>
        <mxCell id="zaFiIXA9nG1pKAVqpKBD-28" value="选择U盘" style="edgeStyle=orthogonalEdgeStyle;rounded=0;orthogonalLoop=1;jettySize=auto;html=1;" parent="1" source="zaFiIXA9nG1pKAVqpKBD-25" target="zaFiIXA9nG1pKAVqpKBD-27" edge="1">
          <mxGeometry relative="1" as="geometry" />
        </mxCell>
        <mxCell id="zaFiIXA9nG1pKAVqpKBD-25" value="是否有多个钱包U盘" style="rhombus;whiteSpace=wrap;html=1;rounded=0;" parent="1" vertex="1">
          <mxGeometry x="43.75" y="490" width="172.5" height="80" as="geometry" />
        </mxCell>
        <mxCell id="To-tUrie1UpzVCq_ssf6-4" value="" style="edgeStyle=orthogonalEdgeStyle;rounded=0;orthogonalLoop=1;jettySize=auto;html=1;" parent="1" source="zaFiIXA9nG1pKAVqpKBD-27" target="To-tUrie1UpzVCq_ssf6-3" edge="1">
          <mxGeometry relative="1" as="geometry" />
        </mxCell>
        <mxCell id="zaFiIXA9nG1pKAVqpKBD-27" value="输入钱包密码" style="whiteSpace=wrap;html=1;rounded=0;" parent="1" vertex="1">
          <mxGeometry x="70" y="650" width="120" height="60" as="geometry" />
        </mxCell>
        <mxCell id="To-tUrie1UpzVCq_ssf6-14" style="edgeStyle=orthogonalEdgeStyle;rounded=0;orthogonalLoop=1;jettySize=auto;html=1;" parent="1" source="To-tUrie1UpzVCq_ssf6-3" target="To-tUrie1UpzVCq_ssf6-13" edge="1">
          <mxGeometry relative="1" as="geometry" />
        </mxCell>
        <mxCell id="To-tUrie1UpzVCq_ssf6-3" value="显示钱包地址界面（需要显示TRX和USD可用余额）" style="whiteSpace=wrap;html=1;rounded=0;" parent="1" vertex="1">
          <mxGeometry x="45" y="790" width="170" height="80" as="geometry" />
        </mxCell>
        <mxCell id="To-tUrie1UpzVCq_ssf6-31" value="" style="edgeStyle=orthogonalEdgeStyle;rounded=0;orthogonalLoop=1;jettySize=auto;html=1;" parent="1" source="To-tUrie1UpzVCq_ssf6-8" target="To-tUrie1UpzVCq_ssf6-30" edge="1">
          <mxGeometry relative="1" as="geometry" />
        </mxCell>
        <mxCell id="To-tUrie1UpzVCq_ssf6-8" value="轮询订单开始转账" style="whiteSpace=wrap;html=1;rounded=0;" parent="1" vertex="1">
          <mxGeometry x="75" y="1310" width="120" height="60" as="geometry" />
        </mxCell>
        <mxCell id="To-tUrie1UpzVCq_ssf6-18" value="是" style="edgeStyle=orthogonalEdgeStyle;rounded=0;orthogonalLoop=1;jettySize=auto;html=1;" parent="1" source="To-tUrie1UpzVCq_ssf6-13" target="To-tUrie1UpzVCq_ssf6-17" edge="1">
          <mxGeometry relative="1" as="geometry" />
        </mxCell>
        <mxCell id="To-tUrie1UpzVCq_ssf6-21" value="否" style="edgeStyle=orthogonalEdgeStyle;rounded=0;orthogonalLoop=1;jettySize=auto;html=1;" parent="1" source="To-tUrie1UpzVCq_ssf6-13" target="To-tUrie1UpzVCq_ssf6-20" edge="1">
          <mxGeometry relative="1" as="geometry">
            <Array as="points">
              <mxPoint x="230" y="960" />
              <mxPoint x="230" y="960" />
            </Array>
          </mxGeometry>
        </mxCell>
        <mxCell id="To-tUrie1UpzVCq_ssf6-13" value="是否已有订单服务配置" style="rhombus;whiteSpace=wrap;html=1;" parent="1" vertex="1">
          <mxGeometry x="65" y="920" width="130" height="80" as="geometry" />
        </mxCell>
        <mxCell id="To-tUrie1UpzVCq_ssf6-19" value="" style="edgeStyle=orthogonalEdgeStyle;rounded=0;orthogonalLoop=1;jettySize=auto;html=1;" parent="1" source="To-tUrie1UpzVCq_ssf6-17" target="To-tUrie1UpzVCq_ssf6-8" edge="1">
          <mxGeometry relative="1" as="geometry" />
        </mxCell>
        <mxCell id="To-tUrie1UpzVCq_ssf6-17" value="点击开始拉单按钮" style="whiteSpace=wrap;html=1;" parent="1" vertex="1">
          <mxGeometry x="75" y="1169" width="120" height="60" as="geometry" />
        </mxCell>
        <mxCell id="To-tUrie1UpzVCq_ssf6-23" value="" style="edgeStyle=orthogonalEdgeStyle;rounded=0;orthogonalLoop=1;jettySize=auto;html=1;" parent="1" source="To-tUrie1UpzVCq_ssf6-20" target="To-tUrie1UpzVCq_ssf6-22" edge="1">
          <mxGeometry relative="1" as="geometry" />
        </mxCell>
        <mxCell id="To-tUrie1UpzVCq_ssf6-20" value="配置订单服务地址&lt;br&gt;api=&lt;br&gt;appId=&lt;br&gt;服务端的公钥" style="whiteSpace=wrap;html=1;" parent="1" vertex="1">
          <mxGeometry x="430.61" y="920" width="159.39" height="60" as="geometry" />
        </mxCell>
        <mxCell id="To-tUrie1UpzVCq_ssf6-26" value="" style="edgeStyle=orthogonalEdgeStyle;rounded=0;orthogonalLoop=1;jettySize=auto;html=1;" parent="1" source="To-tUrie1UpzVCq_ssf6-22" target="To-tUrie1UpzVCq_ssf6-25" edge="1">
          <mxGeometry relative="1" as="geometry" />
        </mxCell>
        <mxCell id="To-tUrie1UpzVCq_ssf6-22" value="生成公私钥" style="whiteSpace=wrap;html=1;" parent="1" vertex="1">
          <mxGeometry x="449.65999999999997" y="1050" width="119.7" height="60" as="geometry" />
        </mxCell>
        <mxCell id="To-tUrie1UpzVCq_ssf6-27" style="edgeStyle=orthogonalEdgeStyle;rounded=0;orthogonalLoop=1;jettySize=auto;html=1;entryX=1;entryY=0.5;entryDx=0;entryDy=0;" parent="1" source="To-tUrie1UpzVCq_ssf6-25" target="To-tUrie1UpzVCq_ssf6-17" edge="1">
          <mxGeometry relative="1" as="geometry" />
        </mxCell>
        <mxCell id="To-tUrie1UpzVCq_ssf6-25" value="将公钥配置到订单服务器作为数据验签,&lt;br&gt;私钥AES加密存储到U盘" style="whiteSpace=wrap;html=1;" parent="1" vertex="1">
          <mxGeometry x="425.38" y="1169" width="169.84" height="60" as="geometry" />
        </mxCell>
        <mxCell id="To-tUrie1UpzVCq_ssf6-33" value="" style="edgeStyle=orthogonalEdgeStyle;rounded=0;orthogonalLoop=1;jettySize=auto;html=1;" parent="1" source="To-tUrie1UpzVCq_ssf6-30" target="To-tUrie1UpzVCq_ssf6-32" edge="1">
          <mxGeometry relative="1" as="geometry" />
        </mxCell>
        <mxCell id="To-tUrie1UpzVCq_ssf6-30" value="按照账户优先级和余额选择采用的账户转账" style="whiteSpace=wrap;html=1;rounded=0;" parent="1" vertex="1">
          <mxGeometry x="280" y="1310" width="120" height="60" as="geometry" />
        </mxCell>
        <mxCell id="Kg0lx0M9-tWQRrdvVJpj-2" value="" style="edgeStyle=orthogonalEdgeStyle;rounded=0;orthogonalLoop=1;jettySize=auto;html=1;" edge="1" parent="1" source="To-tUrie1UpzVCq_ssf6-32" target="Kg0lx0M9-tWQRrdvVJpj-1">
          <mxGeometry relative="1" as="geometry" />
        </mxCell>
        <mxCell id="To-tUrie1UpzVCq_ssf6-32" value="提交数据校验订单" style="whiteSpace=wrap;html=1;rounded=0;" parent="1" vertex="1">
          <mxGeometry x="470" y="1310" width="120" height="60" as="geometry" />
        </mxCell>
        <mxCell id="To-tUrie1UpzVCq_ssf6-34" value="&lt;h1&gt;说明&lt;/h1&gt;&lt;p&gt;1、软件启动自动识别U盘，需要输入密码验证（目前一个U盘暂支持一个钱包存储，可以存储多个账户地址）&lt;/p&gt;&lt;p&gt;2、钱包密码丢失后不可以恢复，用户需要自行保管，API私钥也是采用钱包密码加密，丢失后同样不可以恢复。密码丢失后所有的配置都需要重新保存。&lt;/p&gt;" style="text;html=1;strokeColor=none;fillColor=none;spacing=5;spacingTop=-20;whiteSpace=wrap;overflow=hidden;rounded=0;" parent="1" vertex="1">
          <mxGeometry x="460" y="70" width="240" height="190" as="geometry" />
        </mxCell>
        <mxCell id="Kg0lx0M9-tWQRrdvVJpj-1" value="&lt;span style=&quot;&quot;&gt;转账完成后提交订单服务器，更新状态&lt;/span&gt;" style="whiteSpace=wrap;html=1;rounded=0;" vertex="1" parent="1">
          <mxGeometry x="470" y="1450" width="120" height="60" as="geometry" />
        </mxCell>
      </root>
    </mxGraphModel>
  </diagram>
</mxfile>
